<?xml version="1.0" standalone="no"?><!DOCTYPE svg PUBLIC "-//W3C//DTD SVG 1.1//EN" "http://www.w3.org/Graphics/SVG/1.1/DTD/svg11.dtd"><svg t="1588485781256" class="icon" viewBox="0 0 1024 1024" version="1.1" xmlns="http://www.w3.org/2000/svg" p-id="21517" xmlns:xlink="http://www.w3.org/1999/xlink" width="32" height="32"><defs><style type="text/css"></style></defs><path d="M512 0a512 512 0 1 1 0 1024H0V512a512 512 0 0 1 512-512z" fill="#F87FB5" p-id="21518"></path><path d="M554.944 328.96a171.136 171.136 0 0 0-171.008 171.008 171.2 171.2 0 0 0 171.008 171.008c94.272 0 171.008-76.736 171.008-171.008 0-94.336-76.8-171.008-171.008-171.008z m0 414.976c-60.16 0-115.2-21.888-157.76-58.112l-35.2 35.2 57.728 57.6-51.584 51.584-57.664-57.728-66.816 66.88L192 787.776l66.816-66.816-61.056-61.12 51.648-51.456 60.992 60.992 38.784-38.72a242.56 242.56 0 0 1-38.272-130.688A244.224 244.224 0 0 1 554.88 256a244.224 244.224 0 0 1 244.032 243.968 244.288 244.288 0 0 1-243.968 243.968z" fill="#FFFFFF" p-id="21519"></path></svg>