<?xml version="1.0" standalone="no"?><!DOCTYPE svg PUBLIC "-//W3C//DTD SVG 1.1//EN" "http://www.w3.org/Graphics/SVG/1.1/DTD/svg11.dtd"><svg t="1588485797108" class="icon" viewBox="0 0 1024 1024" version="1.1" xmlns="http://www.w3.org/2000/svg" p-id="21653" xmlns:xlink="http://www.w3.org/1999/xlink" width="32" height="32"><defs><style type="text/css"></style></defs><path d="M0 1023.488049c0.83192-251.495951 0.83192-420.439795 0-506.639553v-4.671553a511.951045 511.951045 0 0 1 873.964427-362.205364 511.823057 511.823057 0 0 1-360.221554 873.836439C426.007263 1024.127988 254.759639 1024 0 1023.488049z" fill="#FFFFFF" p-id="21654"></path><path d="M0 1023.488049c0.83192-251.495951 0.83192-420.439795 0-506.639553v-4.671553a511.951045 511.951045 0 0 1 873.964427-362.205364 511.823057 511.823057 0 0 1-360.221554 873.836439C426.007263 1024.127988 254.759639 1024 0 1023.488049z m462.675757-204.9724a253.863724 253.863724 0 0 0 253.671742-253.607748 251.495951 251.495951 0 0 0-48.955318-149.23373l71.545158-71.609152V436.536176h81.46421v-236.777358H582.600289v81.46421h103.862068L609.349731 358.335654a252.007902 252.007902 0 0 0-146.737968-47.099496 253.991712 253.991712 0 0 0-253.607749 253.671743A253.863724 253.863724 0 0 0 462.675757 818.579643z m0-425.623299a172.33552 172.33552 0 0 1 172.143538 172.015551 172.399514 172.399514 0 0 1-172.143538 172.143538 172.33552 172.33552 0 0 1-172.143539-172.143538 172.271527 172.271527 0 0 1 172.143539-172.015551z" fill="#31D4F6" p-id="21655"></path></svg>